<svg xmlns="http://www.w3.org/2000/svg" width="150" height="150" viewBox="0 0 150 150" version="1.1"><path d="M 44 47.824 C 44 48.399, 44.503 50.137, 45.119 51.685 C 45.734 53.233, 46.548 60.800, 46.928 68.500 C 47.520 80.507, 47.982 83.296, 50.180 88.089 C 52.362 92.850, 60.689 102.645, 61.697 101.636 C 61.878 101.455, 61.345 99.677, 60.513 97.686 C 57.444 90.341, 58.566 82.866, 65.190 66.529 L 69.233 56.558 66.035 53.888 C 61.727 50.291, 44 45.413, 44 47.824 M 97.760 48.558 C 91.512 50.072, 85.035 53.048, 83.215 55.240 C 82.320 56.319, 83.090 59.163, 86.687 68.063 C 92.115 81.496, 93.525 92.237, 90.623 98.054 C 88.425 102.460, 88.482 102.497, 92.620 99.340 C 100.748 93.141, 104.088 83.844, 104.959 65 C 105.315 57.307, 106.118 50.532, 106.827 49.250 C 107.957 47.205, 107.862 47.008, 105.785 47.083 C 104.528 47.129, 100.917 47.793, 97.760 48.558 M 69.029 65.093 C 59.598 88.454, 59.647 97.156, 69.241 103.005 C 74.848 106.424, 80.683 105.208, 86 99.512 C 88.280 97.069, 88.495 96.073, 88.441 88.167 C 88.385 79.918, 88.107 78.849, 82.656 66 C 79.506 58.575, 76.608 51.727, 76.215 50.783 C 75.716 49.583, 73.548 53.901, 69.029 65.093 M 25 70.401 C 22.525 71.119, 19.150 72.257, 17.500 72.931 L 14.500 74.155 17.534 75.439 C 21.605 77.161, 25.448 81.392, 30.391 89.595 C 36.403 99.571, 43.507 103.715, 57.500 105.405 C 62.458 106.004, 62.479 105.995, 60 104.301 C 50.787 98.004, 45.255 88.151, 44.112 76 L 43.500 69.500 36.500 69.298 C 32.650 69.186, 27.475 69.683, 25 70.401 M 107.262 76.470 C 105.166 89.646, 99.879 98.539, 90.434 104.778 C 88.779 105.871, 89.220 105.969, 93.500 105.455 C 107.479 103.777, 115.423 99.115, 120.739 89.468 C 124.120 83.335, 132.103 75, 134.597 75 C 135.369 75, 136 74.632, 136 74.183 C 136 72.611, 124.432 69.671, 116.493 69.225 L 108.487 68.775 107.262 76.470" stroke="none" fill="#8d0f07" fill-rule="evenodd"/><path d="M 57.804 1.548 C 32.490 7.686, 12.103 26.378, 3.318 51.500 C 0.720 58.932, 0.521 60.601, 0.521 75 C 0.521 89.399, 0.720 91.068, 3.318 98.500 C 12.182 123.849, 32.622 142.454, 58.244 148.495 C 66.281 150.390, 83.719 150.390, 91.756 148.495 C 117.296 142.474, 138.235 123.454, 146.442 98.824 C 147.849 94.602, 149 90.241, 149 89.133 C 149 88.025, 149.450 86.840, 150 86.500 C 150.577 86.144, 151 80.803, 151 73.882 C 151 66.137, 150.645 62.101, 150 62.500 C 149.450 62.840, 149 62.158, 149 60.985 C 149 59.812, 147.849 55.398, 146.442 51.176 C 138.235 26.546, 117.296 7.526, 91.756 1.505 C 83.933 -0.340, 65.492 -0.316, 57.804 1.548 M 44 47.824 C 44 48.399, 44.503 50.137, 45.119 51.685 C 45.734 53.233, 46.548 60.800, 46.928 68.500 C 47.520 80.507, 47.982 83.296, 50.180 88.089 C 52.362 92.850, 60.689 102.645, 61.697 101.636 C 61.878 101.455, 61.345 99.677, 60.513 97.686 C 57.444 90.341, 58.566 82.866, 65.190 66.529 L 69.233 56.558 66.035 53.888 C 61.727 50.291, 44 45.413, 44 47.824 M 97.760 48.558 C 91.512 50.072, 85.035 53.048, 83.215 55.240 C 82.320 56.319, 83.090 59.163, 86.687 68.063 C 92.115 81.496, 93.525 92.237, 90.623 98.054 C 88.425 102.460, 88.482 102.497, 92.620 99.340 C 100.748 93.141, 104.088 83.844, 104.959 65 C 105.315 57.307, 106.118 50.532, 106.827 49.250 C 107.957 47.205, 107.862 47.008, 105.785 47.083 C 104.528 47.129, 100.917 47.793, 97.760 48.558 M 69.029 65.093 C 59.598 88.454, 59.647 97.156, 69.241 103.005 C 74.848 106.424, 80.683 105.208, 86 99.512 C 88.280 97.069, 88.495 96.073, 88.441 88.167 C 88.385 79.918, 88.107 78.849, 82.656 66 C 79.506 58.575, 76.608 51.727, 76.215 50.783 C 75.716 49.583, 73.548 53.901, 69.029 65.093 M 0.385 75 C 0.385 81.875, 0.545 84.688, 0.740 81.250 C 0.936 77.813, 0.936 72.188, 0.740 68.750 C 0.545 65.313, 0.385 68.125, 0.385 75 M 25 70.401 C 22.525 71.119, 19.150 72.257, 17.500 72.931 L 14.500 74.155 17.534 75.439 C 21.605 77.161, 25.448 81.392, 30.391 89.595 C 36.403 99.571, 43.507 103.715, 57.500 105.405 C 62.458 106.004, 62.479 105.995, 60 104.301 C 50.787 98.004, 45.255 88.151, 44.112 76 L 43.500 69.500 36.500 69.298 C 32.650 69.186, 27.475 69.683, 25 70.401 M 107.262 76.470 C 105.166 89.646, 99.879 98.539, 90.434 104.778 C 88.779 105.871, 89.220 105.969, 93.500 105.455 C 107.479 103.777, 115.423 99.115, 120.739 89.468 C 124.120 83.335, 132.103 75, 134.597 75 C 135.369 75, 136 74.632, 136 74.183 C 136 72.611, 124.432 69.671, 116.493 69.225 L 108.487 68.775 107.262 76.470" stroke="none" fill="#fbfbfb" fill-rule="evenodd"/></svg>