<svg width="252" height="54" viewBox="0 0 252 54" fill="none" xmlns="http://www.w3.org/2000/svg">
<path d="M163.035 0C172.036 0 179.992 4.47276 184.801 11.3169C187.197 14.7256 190.778 17.4463 194.944 17.4463C199.206 17.4463 202.841 14.5984 205.262 11.0908C209.884 4.39088 217.614 0 226.37 0C240.524 1.13389e-05 251.998 11.474 251.998 25.6279V28.373C251.998 42.5268 240.524 54.001 226.37 54.001C218.611 54.001 211.658 50.5527 206.958 45.1052C203.742 41.3767 199.493 38.2158 194.569 38.2158C189.905 38.2158 185.82 41.0546 182.677 44.4996C177.815 49.8271 170.816 53.1699 163.035 53.1699H26.585C11.9026 53.1699 0.000143556 41.2673 0 26.585C0 11.9025 11.9025 0 26.585 0H163.035Z" fill="#8E0B06"/>
</svg>
